<?xml version="1.0" standalone="no"?><!DOCTYPE svg PUBLIC "-//W3C//DTD SVG 1.1//EN" "http://www.w3.org/Graphics/SVG/1.1/DTD/svg11.dtd"><svg t="1657550214481" class="icon" viewBox="0 0 1024 1024" version="1.1" xmlns="http://www.w3.org/2000/svg" p-id="6762" xmlns:xlink="http://www.w3.org/1999/xlink" width="200" height="200"><defs><style type="text/css"></style></defs><path d="M401.98 127.56H182.45c-30.31 0-54.88 24.57-54.88 54.88v219.53c0 30.31 24.57 54.89 54.88 54.89h219.54c30.31 0 54.88-24.57 54.88-54.89V182.45c0-30.32-24.58-54.89-54.89-54.89zM841.05 127.56H621.52c-30.31 0-54.88 24.57-54.88 54.88v219.53c0 30.31 24.57 54.89 54.88 54.89h219.54c30.31 0 54.88-24.57 54.88-54.89V182.45c0-30.32-24.57-54.89-54.89-54.89zM841.05 566.63H621.52c-30.31 0-54.88 24.57-54.88 54.88v219.54c0 30.31 24.57 54.88 54.88 54.88h219.54c30.31 0 54.88-24.57 54.88-54.88V621.52c0-30.31-24.57-54.89-54.89-54.89zM401.98 566.63H182.45c-30.31 0-54.88 24.57-54.88 54.88v219.54c0 30.31 24.57 54.88 54.88 54.88h219.54c30.31 0 54.88-24.57 54.88-54.88V621.52c0-30.31-24.58-54.89-54.89-54.89z" p-id="6763"></path></svg>