<svg t="1657596370309" class="icon" viewBox="0 0 1024 1024" version="1.1" xmlns="http://www.w3.org/2000/svg" p-id="8391" width="200" height="200"><path d="M896 256h-170.666667V128a42.666667 42.666667 0 0 0-42.666666-42.666667H341.333333a42.666667 42.666667 0 0 0-42.666666 42.666667v298.666667H128a42.666667 42.666667 0 0 0-42.666667 42.666666v341.333334a42.666667 42.666667 0 0 0 42.666667 42.666666h768a42.666667 42.666667 0 0 0 42.666667-42.666666V298.666667a42.666667 42.666667 0 0 0-42.666667-42.666667zM256 768H170.666667v-85.333333h85.333333v85.333333z m0-170.666667H170.666667v-85.333333h85.333333v85.333333z m213.333333 170.666667H384v-85.333333h85.333333v85.333333z m0-170.666667H384v-85.333333h85.333333v85.333333z m0-170.666666H384V341.333333h85.333333v85.333334z m0-170.666667H384V170.666667h85.333333v85.333333z m170.666667 512h-85.333333v-85.333333h85.333333v85.333333z m0-170.666667h-85.333333v-85.333333h85.333333v85.333333z m0-170.666666h-85.333333V341.333333h85.333333v85.333334z m0-170.666667h-85.333333V170.666667h85.333333v85.333333z m213.333333 512h-85.333333v-85.333333h85.333333v85.333333z m0-170.666667h-85.333333v-85.333333h85.333333v85.333333z m0-170.666666h-85.333333V341.333333h85.333333v85.333334z" p-id="8392"></path></svg>
