<?xml version="1.0" standalone="no"?><!DOCTYPE svg PUBLIC "-//W3C//DTD SVG 1.1//EN" "http://www.w3.org/Graphics/SVG/1.1/DTD/svg11.dtd"><svg t="1658415913576" class="icon" viewBox="0 0 1024 1024" version="1.1" xmlns="http://www.w3.org/2000/svg" p-id="2363" xmlns:xlink="http://www.w3.org/1999/xlink" width="200" height="200"><defs><style type="text/css"></style></defs><path d="M318.224583 959.432768h-0.013311c-12.861024 0-24.98485-6.185291-32.412114-16.547011-7.0044-9.775033-9.160702-21.98077-6.089046-33.955109l8.028285-62.339258H116.064569c-30.295743 0-54.952949-24.657206-54.95295-54.953973V394.266498c0-30.295743 24.657206-54.952949 54.95295-54.952949h614.876926c30.295743 0 54.952949 24.657206 54.952949 54.952949v397.370919c0 30.295743-24.657206 54.953973-54.952949 54.953973H484.62745L342.03606 951.895948a26.733646 26.733646 0 0 1-2.389748 1.58395c-6.594845 3.890764-13.994465 5.952869-21.421729 5.95287z m1.310573-168.764971a27.927496 27.927496 0 0 1 20.99784 9.50268 27.955141 27.955141 0 0 1 6.731022 22.03606l-8.01395 62.230726 119.559089-88.293727a27.927496 27.927496 0 0 1 16.615611-5.474715h255.516727l-0.96962-396.401299-613.907306 0.969619 0.969619 396.401299 202.500968-0.970643z" fill="#3E3A39" p-id="2364"></path><path d="M905.70029 605.929192H845.885933v-55.922569h56.291167V197.307822H377.901739v60.701041h-55.922569v-64.224231c0-28.889948 23.510455-52.400403 52.400403-52.400403h531.320717c28.889948 0 52.400403 23.510455 52.400403 52.400403v359.743133c0 28.890972-23.510455 52.401427-52.400403 52.401427z" fill="#3E3A39" p-id="2365"></path></svg>