<?xml version="1.0" standalone="no"?><!DOCTYPE svg PUBLIC "-//W3C//DTD SVG 1.1//EN" "http://www.w3.org/Graphics/SVG/1.1/DTD/svg11.dtd"><svg t="1657549274335" class="icon" viewBox="0 0 1024 1024" version="1.1" xmlns="http://www.w3.org/2000/svg" p-id="5655" xmlns:xlink="http://www.w3.org/1999/xlink" width="200" height="200"><defs><style type="text/css"></style></defs><path d="M923.989333 887.978667H136.021333V98.986667a35.968 35.968 0 1 0-72.021333 0v825.002666c0 19.925333 16.085333 36.010667 36.010667 36.010667h823.978666a35.968 35.968 0 1 0 0-72.021333zM253.781333 636.8a66.005333 66.005333 0 1 0 132.010667 0 66.005333 66.005333 0 0 0-132.010667 0z m259.2-39.808a85.504 85.504 0 1 0 171.008 0 85.504 85.504 0 0 0-171.008 0z m51.2-215.210667a59.904 59.904 0 1 0 119.808 0 59.904 59.904 0 0 0-119.808 0z m241.493334-143.189333a45.482667 45.482667 0 1 0 91.008 0 45.482667 45.482667 0 0 0-90.965334 0z m24.832 191.317333a33.28 33.28 0 1 0 66.56 0 33.28 33.28 0 0 0-66.56 0z" fill="#000000" opacity=".65" p-id="5656"></path></svg>