<?xml version="1.0" standalone="no"?><!DOCTYPE svg PUBLIC "-//W3C//DTD SVG 1.1//EN" "http://www.w3.org/Graphics/SVG/1.1/DTD/svg11.dtd"><svg t="1658741981762" class="icon" viewBox="0 0 1024 1024" version="1.1" xmlns="http://www.w3.org/2000/svg" p-id="1640" xmlns:xlink="http://www.w3.org/1999/xlink" width="200" height="200"><defs><style type="text/css"></style></defs><path d="M939.834088 334.002027 542.991852 192.07048c-24.77936-9.369392-19.529799-9.369392-44.149523-0.176009L99.708909 332.641029c-24.460088 9.193383-24.460088 24.337291 0.327458 33.533744l94.864578 33.525558c-42.017976 42.382273-44.808532 86.458117-45.296649 137.517003-16.254196 6.471388-27.738761 22.808472-27.738761 42.042535 0 17.697057 9.68457 32.836873 23.791869 40.325427-6.729262 51.9113-25.927509 111.143333-82.548064 181.26539 27.894304 22.459524 42.345434 30.119995 64.166415 37.615713 79.109756-35.403325 69.425186-129.181151 63.35084-222.61924 10.836813-8.16803 17.894555-21.447475 17.894555-36.58729 0-16.172331-8.204869-30.308283-20.35356-38.132482 1.475608-50.030463 11.816117-94.785783 47.759747-123.725906 0.331551-0.680499 1.147126-1.528819 2.622734-2.041496l57.276495 20.25123 206.29853 72.843028c24.783453 9.365298 19.533892 9.365298 44.149523 0.167822l393.719106-140.742465C964.782294 358.347504 964.613448 343.194386 939.834088 334.002027L939.834088 334.002027 939.834088 334.002027 939.834088 334.002027zM800.841477 510.577604l0 245.918899c-3.421936 59.575864-204.925253 81.969896-204.925253 81.969896L472.960869 838.4664c0 0-201.789842-27.431769-204.925253-81.969896L268.035616 510.577604l245.910713 81.97399 40.98546 0L800.841477 510.577604z" p-id="1641"></path></svg>