<?xml version="1.0" standalone="no"?><!DOCTYPE svg PUBLIC "-//W3C//DTD SVG 1.1//EN" "http://www.w3.org/Graphics/SVG/1.1/DTD/svg11.dtd"><svg t="1657594733541" class="icon" viewBox="0 0 1024 1024" version="1.1" xmlns="http://www.w3.org/2000/svg" p-id="7383" xmlns:xlink="http://www.w3.org/1999/xlink" width="200" height="200"><defs><style type="text/css"></style></defs><path d="M134.525879 103.295598l670.778236 0c0 0-0.535189 44.435025 0 74.53046 0.536212 30.090319 37.267788 37.265742 37.267788 37.265742l74.529437 0 0 372.654348 55.898101 55.898101L972.999442 196.458417 823.937498 47.397496 115.89352 47.397496c-17.624403 0-37.263695 19.61064-37.263695 37.265742l0 819.84018c0 17.637706 19.637246 37.265742 37.263695 37.265742l521.716292 0-55.898101-55.898101L134.525879 885.871059 134.525879 103.295598z" p-id="7384"></path><path d="M378.372583 342.921163c0 8.201799 6.523577 14.829753 14.559601 14.829753l0.279363 0c2.998287 39.036062 37.515429 80.933287 76.703963 80.933287 39.184441 0 68.848041-41.897226 71.847351-80.933287l0.258896 0c8.058536 0 14.575973-6.627954 14.575973-14.829753 0-6.018064-3.561106-11.184737-8.637728-13.481036 2.957355-8.773827 4.555759-18.155499 4.555759-27.930119 0-47.728024-38.046524-86.418208-85.046978-86.418208-46.967708 0-85.030605 38.691207-85.030605 86.418208 0 9.774621 1.620917 19.156292 4.560876 27.930119C381.895827 331.736427 378.372583 336.9031 378.372583 342.921163L378.372583 342.921163z" p-id="7385"></path><path d="M631.682823 505.230829c0 0 12.973476-23.782659 43.192731-10.648524-33.359782-31.039947-130.429585-37.265742-130.429585-37.265742s-18.922978 0.161682-18.632359 0c-13.113669 7.380084-39.066761 23.082718-57.214073 23.082718-18.150382 0-41.469484-14.764262-54.603619-22.145369-3.689019-2.060939-21.149693-0.394996-18.611893-0.937348-44.602847 11.081383-75.648934 35.363416-109.50809 69.883627-1.468444 1.481747-2.288113 3.557012-2.288113 5.677303l0 28.317952c0 4.40124 3.37998 7.91732 7.552 7.91732l244.653069 0C607.337345 494.906693 631.682823 505.230829 631.682823 505.230829z" p-id="7386"></path><path d="M264.957511 625.037473c0 10.296507 6.238075 18.606777 13.883195 18.606777L518.008854 643.644249c2.476401-12.8384 22.604834-25.278733 26.438139-37.265742L278.840706 606.378507C271.195585 606.378507 264.957511 614.722546 264.957511 625.037473L264.957511 625.037473z" p-id="7387"></path><path d="M962.365244 879.432417l-97.068779-86.726224-55.898101 55.898101 99.511411 82.468247c7.393387 7.145747 17.047258 10.695596 26.719548 10.695596 9.670244 0 19.324114-3.549849 26.717502-10.67513C977.092667 916.811746 977.092667 893.694235 962.365244 879.432417L962.365244 879.432417z" p-id="7388"></path><path d="M734.86688 718.175733m-167.694303 0a163.875 163.875 0 1 0 335.388607 0 163.875 163.875 0 1 0-335.388607 0Z" p-id="7389"></path><path d="M734.86688 587.746148c71.359234 0 130.429585 59.835783 130.429585 130.429585s-56.798611 129.683595-128.155798 129.683595-132.700301-59.089793-132.700301-129.683595S663.508669 587.746148 734.86688 587.746148z" p-id="7390"></path></svg>