<?xml version="1.0" standalone="no"?><!DOCTYPE svg PUBLIC "-//W3C//DTD SVG 1.1//EN" "http://www.w3.org/Graphics/SVG/1.1/DTD/svg11.dtd"><svg t="1658415983090" class="icon" viewBox="0 0 1024 1024" version="1.1" xmlns="http://www.w3.org/2000/svg" p-id="2677" xmlns:xlink="http://www.w3.org/1999/xlink" width="200" height="200"><defs><style type="text/css"></style></defs><path d="M512 312.888889a80.687407 80.687407 0 0 1 40.96 150.281481L512 487.442963l-40.77037-24.272593A80.782222 80.782222 0 0 1 512 312.888889m0 236.183704l52.148148 17.161481a159.478519 159.478519 0 0 1 104.296296 112.82963l0.474075 1.991111 0.663703 1.896296a21.522963 21.522963 0 0 1-20.385185 28.444445h-274.962963a21.522963 21.522963 0 0 1-20.48-28.444445l0.663704-1.896296 0.474074-1.991111a159.099259 159.099259 0 0 1 105.054815-112.924445l52.053333-17.066666M512 256a137.671111 137.671111 0 0 0-70.162963 256 215.988148 215.988148 0 0 0-142.222222 153.315556A78.411852 78.411852 0 0 0 374.234074 768h275.531852a78.411852 78.411852 0 0 0 74.524444-102.58963A216.367407 216.367407 0 0 0 582.162963 512 137.576296 137.576296 0 0 0 512 256z" fill="#2c2c2c" p-id="2678"></path><path d="M468.859259 667.591111L512 707.223704l43.140741-39.632593-36.503704-85.333333a7.016296 7.016296 0 0 1 1.422222-7.585185 102.020741 102.020741 0 0 0 17.161482-28.444445 40.485926 40.485926 0 0 0-23.608889-8.248889h-3.318519a40.77037 40.77037 0 0 0-23.608889 8.248889 101.546667 101.546667 0 0 0 17.161482 28.444445 7.016296 7.016296 0 0 1 1.422222 7.585185l-36.503704 85.333333z" fill="#2c2c2c" p-id="2679"></path><path d="M512 113.777778a398.222222 398.222222 0 0 1 281.6 679.822222 398.222222 398.222222 0 0 1-563.2-563.2A395.662222 395.662222 0 0 1 512 113.777778m0-56.888889a455.111111 455.111111 0 1 0 321.801481 133.30963A453.688889 453.688889 0 0 0 512 56.888889z" fill="#2c2c2c" p-id="2680"></path><path d="M829.62963 801.28a28.444444 28.444444 0 0 0-20.100741 8.343704 28.444444 28.444444 0 0 0 0 40.201481l80.497778 80.497778a28.444444 28.444444 0 0 0 40.201481-40.201482l-80.497778-80.497777a28.444444 28.444444 0 0 0-20.10074-8.343704z" fill="#2c2c2c" p-id="2681"></path></svg>