<?xml version="1.0" standalone="no"?><!DOCTYPE svg PUBLIC "-//W3C//DTD SVG 1.1//EN" "http://www.w3.org/Graphics/SVG/1.1/DTD/svg11.dtd"><svg t="1658292164565" class="icon" viewBox="0 0 1024 1024" version="1.1" xmlns="http://www.w3.org/2000/svg" p-id="3348" xmlns:xlink="http://www.w3.org/1999/xlink" width="200" height="200"><defs><style type="text/css"></style></defs><path d="M512.146827 268.510985c-250.902034 0-454.505322 157.57406-454.505322 359.095851 0 77.452531 32.639121 168.259723 83.298552 213.54786C166.24668 863.780505 88.131465 990.268512 109.075322 1018.193654c23.957624 31.943141 164.908706-79.128039 205.700895-61.760749C355.568406 973.800196 441.499439 987.04638 512.146827 987.04638c250.902034 0 447.742067-158.01764 454.089667-359.439545C972.069626 442.506103 768.001278 268.510985 512.146827 268.510985zM511.997535 950.528886C447.362645 950.528886 362.014817 933.770578 323.347087 920.455656c-38.351961-13.206444-179.982913 66.085924-179.982913 66.085924s52.530415-136.615167 29.151701-161.97227c-42.140114-45.708088-76.209862-124.513914-76.209862-195.375037 0-184.372531 186.277885-324.240977 415.827925-324.240977s415.35105 154.807323 415.447714 324.240977C927.690131 821.643613 741.54865 950.528886 511.997535 950.528886zM311.488568 622.945485m-64.394304 0a59.955 59.955 0 1 0 128.788609 0 59.955 59.955 0 1 0-128.788609 0ZM504.000204 622.945485m-64.394304 0a59.955 59.955 0 1 0 128.788609 0 59.955 59.955 0 1 0-128.788609 0ZM696.511839 622.945485m-64.394304 0a59.955 59.955 0 1 0 128.788609 0 59.955 59.955 0 1 0-128.788609 0Z" p-id="3349"></path></svg>