<?xml version="1.0" standalone="no"?><!DOCTYPE svg PUBLIC "-//W3C//DTD SVG 1.1//EN" "http://www.w3.org/Graphics/SVG/1.1/DTD/svg11.dtd"><svg t="1657957972671" class="icon" viewBox="0 0 1024 1024" version="1.1" xmlns="http://www.w3.org/2000/svg" p-id="2192" xmlns:xlink="http://www.w3.org/1999/xlink" width="200" height="200"><defs><style type="text/css"></style></defs><path d="M1023.917096 512.055989c0 101.04266-29.992259 199.309851-86.731399 284.177607-12.27565 18.360486-37.110897 23.297541-55.473382 11.019891-18.362485-12.27565-23.295541-37.112896-11.019891-55.473382 193.005058-281.896043-17.682615-674.472902-358.683346-671.637445-238.154416-0.002-431.911329 193.754914-431.911329 431.915329v411.815176c0 10.985897 7.560553 16.080922 10.81193 17.7626 3.249378 1.681678 11.779745 4.903062 20.74403-1.443724l105.643779-74.829677a39.986346 39.986346 0 0 1 46.159165-0.04999c136.037961 98.223199 329.418947 104.633972 471.993657 16.462849 18.890384-11.44181 43.483677-5.402966 54.925487 13.487418 11.44381 18.892384 5.404965 43.483677-13.487418 54.927487-160.567266 99.233006-376.847869 97.917258-535.741456-3.703291L157.88486 1005.463548C92.719333 1052.470551-0.584808 1004.191791 0.115058 923.875165V512.055989C-5.559856 236.896656 236.853745-5.532941 512.019076 0.15797c275.137337-5.69291 517.594929 236.748685 511.89802 511.898019z m-217.958282-85.983542c-22.087772 0-39.992345 17.904573-39.992345 39.992345 2.105597 53.049846 77.887092 53.033849 79.984691 0 0-22.087772-17.904573-39.992345-39.992346-39.992345z m-83.983925 165.968233c0 22.087772 17.904573 39.992345 39.992346 39.992345 53.049846-2.105597 53.033849-77.887092 0-79.984691-22.087772 0-39.992345 17.904573-39.992346 39.992346z m-391.924983-137.973591c-0.009998-0.353932-0.007998 0.327937 0 0z m487.906612-119.977036c0-22.087772-17.904573-39.992345-39.992345-39.992345-53.049846 2.105597-53.033849 77.887092 0 79.98469 22.087772 0 39.992345-17.906573 39.992345-39.992345z m-531.898191 0c0-22.087772-17.904573-39.992345-39.992346-39.992345-53.049846 2.105597-53.033849 77.887092 0 79.98469 22.087772 0 39.992345-17.906573 39.992346-39.992345z m-107.979332 129.975122c0 22.087772 17.904573 39.992345 39.992345 39.992345 53.049846-2.105597 53.033849-77.887092 0-79.98469-22.087772 0-39.992345 17.904573-39.992345 39.992345z m515.901253-9.998086c0.005999 0.307941 0.005999-0.293944 0 0z m-433.916946 177.965936c22.087772 0 39.992345-17.904573 39.992345-39.992345-2.105597-53.049846-77.887092-53.033849-79.98469 0 0 22.085773 17.904573 39.992345 39.992345 39.992345z m147.971678 88.355088v-49.458533c0-28.716503-15.533027-56.127257-33.519585-87.869181-20.550067-36.265059-43.817613-79.032873-44.465489-128.99331 2.529516-216.328593 366.409867-210.879636 363.930342 0-0.531898 54.969478-23.497502 98.129217-43.77962 134.89418-16.208898 29.380376-30.206218 54.755519-30.206219 81.968311v49.458533c0 38.944546-28.852477 71.278357-66.319306 76.783303-7.064648 46.157165-72.196181 46.171163-79.312819 0.061989-37.438834-5.324981-66.327305-37.756773-66.327304-76.845292z m131.974739-42.363891h-51.990049v39.992345h51.990049zM410.036596 454.169069c1.019805 48.978625 43.145742 96.005624 62.030127 143.870462h83.977927c7.192623-17.028741 15.896957-32.803721 24.119383-47.710867 17.308687-31.377994 33.663557-61.026319 33.829525-96.1316-0.339935-72.298162-70.158571-80.114666-100.216818-80.114666-49.992431 0-103.402208 21.05397-103.740144 80.086671z" p-id="2193"></path></svg>