<?xml version="1.0" standalone="no"?><!DOCTYPE svg PUBLIC "-//W3C//DTD SVG 1.1//EN" "http://www.w3.org/Graphics/SVG/1.1/DTD/svg11.dtd"><svg t="1657554826919" class="icon" viewBox="0 0 1024 1024" version="1.1" xmlns="http://www.w3.org/2000/svg" p-id="7292" xmlns:xlink="http://www.w3.org/1999/xlink" width="200" height="200"><defs><style type="text/css"></style></defs><path d="M366.1568 386.944H326.272l-24.9344-94.72h-0.512l-23.9232 94.72h-40.384l-44.8768-141.0944h40.8832l25.9328 95.7312h0.4992l23.424-95.7312h37.9008l23.936 95.7312h0.4992l25.92-95.7312h39.8976l-44.3776 141.1072z m95.7312-70.2976c0 5.504 0.4992 10.9696 1.4976 16.4608 0.9984 5.4784 2.9952 9.984 5.4784 14.464 2.496 4.48 5.9904 7.4752 10.4704 10.4704 4.4928 2.4832 9.984 3.9808 16.4608 3.9808s11.968-1.4976 16.448-3.9808c4.4928-2.496 7.9872-5.9904 10.4704-10.4704 2.496-4.48 4.4928-8.9856 5.4912-14.464a91.7376 91.7376 0 0 0 0-32.9088 41.6 41.6 0 0 0-5.4912-14.464 34.8544 34.8544 0 0 0-10.4704-10.4704c-4.48-2.9824-9.9712-3.9808-16.448-3.9808-6.4768 0-11.968 1.4976-16.4608 3.9808-4.48 2.496-7.9744 5.9904-10.4704 10.4704-2.4832 3.9936-4.48 8.9856-5.4784 14.464-0.9984 4.992-1.4976 10.4704-1.4976 16.448z m-38.8992 0c0-11.456 1.5104-21.4272 4.992-30.912a67.4304 67.4304 0 0 1 14.9632-23.424 65.3568 65.3568 0 0 1 22.9376-14.976 81.9584 81.9584 0 0 1 29.9136-5.4784c10.9696 0 20.9408 1.9968 30.4128 5.4912 8.9728 3.4816 16.9472 8.4736 22.9376 14.9632 6.4768 6.4768 11.4688 14.464 14.9632 23.424 3.4816 8.9856 4.992 19.456 4.992 30.912 0 11.4688-1.5104 21.44-4.992 30.4256a67.3536 67.3536 0 0 1-14.976 23.424 65.3568 65.3568 0 0 1-22.912 14.976c-8.9856 3.4816-18.9568 4.9792-30.4256 4.9792-10.9696 0-20.9408-1.4976-29.9136-4.992a65.3568 65.3568 0 0 1-22.9376-14.9632 67.4304 67.4304 0 0 1-14.9632-23.424c-3.4816-8.9856-4.992-19.456-4.992-30.4256z m171.52-70.784h36.9024v26.4192h0.512c1.984-4.4928 4.48-8.4864 7.4752-11.968 2.9824-3.4944 6.4768-6.9888 10.4704-9.472 3.9808-2.496 8.4736-4.4928 12.9536-5.9904 4.4928-1.4976 9.472-1.9968 14.464-1.9968 2.496 0 5.4912 0.512 8.4736 1.4976v35.904c-1.9968-0.512-3.9808-0.512-6.4768-0.9984-2.496-0.512-4.992-0.512-7.488-0.512-6.976 0-12.9536 1.0112-17.9456 3.4944-4.992 2.5088-8.96 5.504-11.968 9.472-2.9824 3.9936-4.992 8.9856-6.4768 14.464-1.4976 5.4912-1.9968 11.4688-1.9968 17.9584v63.8208h-38.8864V245.8496zM800.96 316.16c0-5.9904-0.512-11.4688-1.4976-16.96-0.9984-5.4784-2.9952-9.984-5.4912-14.464a28.8768 28.8768 0 0 0-10.4704-9.9712c-3.9808-2.4832-9.472-3.9808-15.9488-3.9808-6.4896 0-11.968 1.4976-15.9616 3.9808a28.8 28.8 0 0 0-10.4704 9.984c-2.496 3.968-4.48 8.96-5.9776 14.4512-0.9984 5.4912-1.9968 10.9696-1.9968 16.96 0 5.4784 0.4992 10.9568 1.9968 16.448 1.4976 5.4784 3.4816 10.4704 5.9776 14.464 2.9952 4.48 6.4896 7.9744 10.4704 10.4704 3.9936 2.4832 9.472 3.9808 15.4624 3.9808 6.4768 0 11.4688-1.4976 15.9488-3.9808 4.48-2.496 7.488-5.9904 10.4704-10.4704 2.496-4.48 4.48-8.9856 5.4912-14.464 1.4976-4.992 1.9968-10.9696 1.9968-16.448z m0.4864 52.8384h-0.4864a40.768 40.768 0 0 1-17.9584 16.4608c-7.4752 3.4944-15.9488 4.992-24.9216 4.992-10.4704 0-19.9552-1.9968-27.9296-5.9904a57.9712 57.9712 0 0 1-19.9424-16.448c-5.4784-6.9888-8.9728-14.9632-11.968-24.4352a105.8304 105.8304 0 0 1-3.9808-28.416c0-9.472 1.4976-18.4576 3.9808-27.4304a65.28 65.28 0 0 1 11.968-23.424c4.992-6.9888 11.4688-11.968 19.456-16.4608 7.9744-3.9936 16.9472-5.9904 27.4176-5.9904 8.4736 0 16.448 1.9968 23.936 5.4912a42.688 42.688 0 0 1 17.9456 15.9616h0.4992V192h38.8864v194.944h-36.9024v-17.9456z m-650.6752 143.104c-1.9968-13.952-10.4704-21.44-24.9344-21.44-5.4784 0-9.9712 0.9984-13.4656 3.4944a32.6528 32.6528 0 0 0-8.96 9.472 36.9664 36.9664 0 0 0-4.992 12.9664c-0.9984 4.48-1.4976 9.472-1.4976 13.952 0 4.4928 0.4992 8.9856 1.4976 13.4656 0.9984 4.48 2.4832 8.9856 4.48 12.4672 1.9968 3.4944 4.992 6.9888 8.9728 8.9728 3.4944 2.496 7.9872 3.4944 13.4656 3.4944 7.9872 0 14.464-2.496 18.944-6.976 4.4928-4.48 6.9888-10.4704 8.4864-18.4448h32.896c-1.984 16.448-8.4608 28.9152-18.944 37.3888-10.4576 8.4736-23.936 12.9664-40.384 12.9664-9.472 0-17.9456-1.4976-25.4336-4.48a55.3984 55.3984 0 0 1-19.9424-12.9792c-5.4784-5.4784-9.472-12.4544-12.4544-19.9424A71.808 71.808 0 0 1 64 531.072c0-9.472 1.4976-18.4576 3.9936-26.432 2.9824-7.9744 6.976-15.4624 12.4544-21.44a57.5616 57.5616 0 0 1 19.9552-13.952c7.9744-3.4944 16.9472-4.992 26.9184-4.992 7.488 0 14.464 0.9984 20.9408 2.9824a50.688 50.688 0 0 1 17.9584 8.9856c5.4784 3.9808 9.472 8.96 12.9536 14.464 3.4944 5.9776 5.4912 12.9536 5.9904 20.4288h-34.4064v0.9984z m53.8496-90.752h33.9072v170.5344h-33.9072V421.3632z m90.752 108.6976c0 4.992 0.4992 9.984 1.4848 14.464 0.9984 4.48 2.496 8.9856 4.992 12.4672 2.496 3.9936 5.4912 6.9888 8.9728 8.9728 3.9936 1.9968 8.4736 3.4944 14.464 3.4944 5.9776 0 10.4704-0.9984 14.464-3.4944 3.9808-2.4832 6.976-4.992 9.472-8.96 2.4832-3.9936 3.9808-7.9872 4.9792-12.48 0.9984-4.48 1.4976-9.472 1.4976-14.464 0-4.9792-0.4992-9.9712-1.4976-14.4512-0.9984-4.992-2.496-8.9728-4.992-12.4672a32.7424 32.7424 0 0 0-9.472-8.96c-3.9808-2.5088-8.96-3.5072-14.464-3.5072-5.9776 0-10.4576 0.9984-14.4512 3.4944a25.7536 25.7536 0 0 0-8.9728 8.9728c-2.496 3.4944-3.9936 7.9744-4.992 12.4672-0.9856 4.992-1.4848 9.984-1.4848 14.464z m-33.92 0c0-9.9712 1.4976-18.944 4.4928-26.9184a57.3184 57.3184 0 0 1 12.9664-20.4416 59.9296 59.9296 0 0 1 19.9424-12.9664c7.9872-2.9824 16.4608-4.48 26.432-4.48 9.9712 0 18.4448 1.4976 26.4192 4.48 7.9872 2.9952 14.464 7.488 20.4416 12.9664 5.9904 5.4784 9.984 12.4672 12.9664 20.4416 2.9952 7.9744 4.48 16.9472 4.48 26.9184 0 9.984-1.4848 18.944-4.48 26.9312a57.4464 57.4464 0 0 1-12.9664 20.4416c-5.4784 5.4912-12.4544 9.984-20.4416 12.9664-7.9744 2.9952-16.448 4.48-26.4192 4.48-9.984 0-18.4448-1.4848-26.432-4.48a55.296 55.296 0 0 1-19.9424-12.9664 57.3824 57.3824 0 0 1-12.9664-20.4416c-2.9952-7.9744-4.48-16.9472-4.48-26.9312z m266.2656 61.8368h-32.4096v-17.4464h-0.4992c-4.48 6.976-9.9712 12.4544-16.9472 15.4496-6.9888 2.9952-13.9648 4.992-20.9408 4.992-8.9856 0-16.4608-0.9984-22.4384-3.4944a37.2096 37.2096 0 0 1-13.9648-9.9712c-3.4944-4.48-5.4912-9.9712-6.9888-15.9616-1.4848-6.4768-1.984-13.4528-1.984-20.9408v-76.288H445.44v69.8112c0 9.9712 1.4976 17.9456 4.992 22.9376 2.9824 4.992 8.96 7.4752 16.9472 7.4752 9.472 0 15.9488-2.9952 19.9424-8.4736 3.9808-5.4912 5.9776-14.464 5.9776-26.9184V468.224h33.92v123.6608h0.4864z m113.1776-61.824c0-4.992-0.4992-9.984-1.4848-14.9632-0.9984-4.48-2.496-8.9728-4.992-12.4672a38.2848 38.2848 0 0 0-8.9728-8.96 28.8 28.8 0 0 0-13.952-3.5072c-5.504 0-10.4832 0.9984-13.9776 3.4944a19.584 19.584 0 0 0-8.96 8.9728c-2.5088 3.4944-4.0064 7.9744-4.992 12.4672a68.992 68.992 0 0 0-1.4976 14.9504c0 4.992 0.4992 9.472 1.4976 14.464 0.9856 4.992 2.9824 8.9856 5.4784 12.9664 2.496 3.9808 5.4784 6.9888 9.472 8.9728 3.9936 2.496 8.4736 3.4944 13.4656 3.4944 5.4912 0 10.4704-0.9984 13.952-3.4944 3.9936-1.984 6.9888-4.992 8.9856-8.96 1.9968-3.9936 3.9936-7.9872 4.992-12.9792 0.4864-4.48 0.9856-9.472 0.9856-14.464z m0.512 46.3616c-4.4928 6.4768-9.472 11.4688-15.9616 14.464-6.4768 2.9952-13.952 4.48-21.9392 4.48-9.472 0-17.4464-1.984-24.4352-5.4784a49.408 49.408 0 0 1-17.4464-14.464 68.6464 68.6464 0 0 1-10.4704-20.9408 83.712 83.712 0 0 1-3.4944-24.9216c0-8.4864 0.9984-16.4608 3.4944-23.936 2.496-7.9744 5.9776-14.464 10.4704-20.4416 4.48-5.9904 10.4704-10.4704 16.9472-14.464a52.8896 52.8896 0 0 1 23.936-5.4912c7.4752 0 14.464 1.5104 20.9408 4.4928 6.4768 2.9952 11.968 7.488 15.4624 13.952h0.4992v-62.3232h33.9072v170.5344h-31.9232v-15.4624z" fill="#2c2c2c" p-id="7293"></path><path d="M744.6016 454.272c-0.512-3.4944-1.9968-5.9904-3.9936-7.488a13.824 13.824 0 0 0-7.9744-2.4832c-1.4976 0-2.9952 0.4992-4.992 0.9984a7.2448 7.2448 0 0 0-4.48 2.9824c-1.4976 1.4976-2.496 3.4944-3.4944 5.9904-0.9984 2.4832-1.4976 5.9776-1.4976 9.9712 0 1.9968 0.512 4.48 0.9984 6.4768 0.512 1.9968 1.4976 3.9936 2.496 5.9904a11.8016 11.8016 0 0 0 4.48 3.9808c1.9968 0.9984 3.9936 1.4976 6.4896 1.4976 3.4944 0 6.4768-0.9984 8.4736-2.9952 1.9968-1.984 3.4944-4.992 3.9936-8.96h11.4688c-0.9984 6.976-3.4944 11.9552-7.9872 15.9488-3.9808 3.4816-9.472 5.4784-16.448 5.4784-3.9936 0-7.9872-0.4992-10.9696-1.9968-2.9952-1.4976-5.9904-3.4816-7.9744-5.9776-1.9968-2.496-3.9936-5.4912-4.992-8.4736a38.848 38.848 0 0 1-1.4976-10.9696c0-3.9936 0.4992-7.488 1.4976-10.9696 0.9984-3.4944 2.496-6.4896 4.992-8.9728 2.4832-2.496 4.992-4.4928 7.9744-5.9904 3.4816-1.4976 6.976-1.9968 11.4688-1.9968 2.9824 0 5.9776 0.512 8.96 0.9984 3.008 0.9984 4.992 1.9968 7.488 3.4944 1.9968 1.4976 3.9936 3.4944 5.4912 5.9776 1.4976 2.496 1.9968 4.992 2.496 8.4864h-12.4672v-0.9984z m21.44-37.888h11.4688v73.28h-11.4688V416.384z m48.8576 74.7776c-3.9808 0-7.9744-0.4992-11.4688-1.9968a26.0864 26.0864 0 0 1-8.4736-5.9776 19.9168 19.9168 0 0 1-4.992-8.9728c-0.9856-3.4944-1.984-6.9888-1.984-11.4688 0-3.9936 0.4992-7.9744 1.9968-10.9696 0.9856-3.4944 2.9824-6.4768 4.9792-8.9728 2.496-2.496 4.992-4.48 8.4736-5.9904 3.4944-1.4848 6.9888-1.984 11.4688-1.984 3.9936 0 7.9744 0.4992 11.4688 1.984 3.4944 1.4976 5.9904 3.4944 8.4736 5.9904 2.496 2.496 3.9936 5.4784 4.992 8.9728 0.9984 3.4944 1.9968 6.976 1.9968 10.9696 0 3.9936-0.512 7.9744-1.9968 11.4688a26.0864 26.0864 0 0 1-4.992 8.9728c-2.4832 2.496-4.992 4.48-8.4736 5.9776-3.4944 0.9984-7.4752 1.9968-11.4688 1.9968z m0-9.472c2.496 0 4.992-0.4992 6.9888-1.4976a9.792 9.792 0 0 0 4.48-4.48c0.9984-1.9968 1.9968-3.9936 2.496-5.9904a29.696 29.696 0 0 0 0.9984-6.976c0-2.496-0.512-4.48-0.9984-6.976a16.6272 16.6272 0 0 0-2.496-5.9904c-0.9984-1.4976-2.9952-2.9952-4.48-4.48a14.464 14.464 0 0 0-6.9888-1.4976c-2.496 0-4.992 0.4992-6.976 1.4976a9.7664 9.7664 0 0 0-4.48 4.48 21.44 21.44 0 0 0-2.496 5.9904c-0.512 2.4832-0.9984 4.48-0.9984 6.976 0 2.496 0.4992 4.48 0.9984 6.976 0.4864 1.9968 1.4848 3.9936 2.4832 5.9904 0.9984 1.984 2.9952 2.9824 4.4928 4.48 1.9968 0.9984 3.9808 1.4976 6.976 1.4976z m82.7776 7.9744h-11.4688v-7.4752c-1.4976 2.496-3.4944 4.992-6.4896 6.4768-2.9824 1.4976-5.4784 2.496-8.4736 2.496-6.976 0-11.968-1.4976-14.9504-4.992-2.9952-3.4816-4.4928-8.4736-4.4928-15.4496v-33.408h11.4688v31.9104c0 4.4928 0.9856 7.9872 2.496 9.984 1.984 1.984 4.48 2.9824 7.4752 2.9824 2.496 0 4.48-0.4992 5.9776-0.9984 1.4976-0.9984 2.9952-1.9968 3.9936-2.9952 0.9984-1.4848 1.9968-2.9824 1.9968-4.48 0.4992-1.9968 0.4992-3.4944 0.4992-5.9904v-30.912h11.4688v52.864h0.4992z m62.3232 0h-10.9696v-6.976c-1.4976 2.9952-3.9936 5.4784-6.9888 6.4768a20.1984 20.1984 0 0 1-9.472 1.9968c-3.9808 0-7.9744-0.4992-10.9696-1.9968a30.4384 30.4384 0 0 1-7.9744-5.9776 25.2672 25.2672 0 0 1-4.48-8.9728 38.8352 38.8352 0 0 1-1.4976-10.9696c0-4.992 0.4992-8.9728 1.984-12.4672 1.4976-3.4944 2.9952-6.4768 4.992-8.4736 1.9968-2.496 4.48-3.9936 7.4752-4.992 2.9952-0.9984 5.4912-1.4976 8.4864-1.4976 1.4976 0 3.4944 0 4.992 0.512 1.4848 0.4864 3.4816 0.9856 4.9792 1.4848 1.4976 0.512 2.9952 1.4976 4.48 2.496 1.4976 0.9984 2.496 2.496 3.4944 3.9936v-26.9312H960v72.2944z m-40.8832-25.92c0 2.496 0.4992 4.48 0.9856 6.4768 0.512 1.9968 1.4976 3.9936 2.496 5.9904a11.7888 11.7888 0 0 0 4.4928 3.9808c1.9968 0.9984 3.9808 1.4976 6.4768 1.4976s4.992-0.4992 6.4896-1.4976a9.8176 9.8176 0 0 0 4.48-4.48c0.9984-1.9968 1.9968-3.9936 2.496-5.9904a29.44 29.44 0 0 0 0.9984-6.976c0-5.9904-1.4976-10.4704-3.9808-13.952-2.5088-3.4944-5.9904-4.992-10.4832-4.992-2.496 0-4.992 0.4992-6.976 1.4976a9.7664 9.7664 0 0 0-4.48 4.48c-1.0112 1.9968-2.0096 3.9936-2.496 5.9904-0.512 1.984-0.512 5.4784-0.512 7.9744z m-160.5504 114.688h-0.512l-9.472-39.3984h-11.9552l-9.472 39.3856h-0.512l-10.4576-39.3856h-12.4672l16.448 52.8512h12.4672l9.9712-39.3856 9.9712 39.3856h11.968l16.448-52.864h-11.9552l-10.4704 39.3984z m117.1712-40.896a14.72 14.72 0 0 0-4.992 0.9984 13.1584 13.1584 0 0 0-4.48 2.4832 28.8256 28.8256 0 0 0-3.4944 3.9936c-0.9984 1.4976-1.4976 2.9952-1.9968 3.9936v-9.984h-10.9696v52.864h11.4688v-25.4336c0-2.9824 0.4992-5.4784 0.9984-7.9744 0.9984-2.496 1.984-3.9936 2.9824-5.4912a27.392 27.392 0 0 1 4.4928-3.4816c1.4976-0.9984 3.4944-0.9984 5.4784-0.9984h2.5088c0.9856 0 1.4848 0 2.4832 0.4992v-11.4688h-4.48z m47.872-18.944v26.9184c-1.0112-1.4976-2.0096-2.4832-3.5072-3.9936a20.224 20.224 0 0 0-4.48-2.4832c-1.4976-0.512-2.9952-0.9984-4.992-1.4976-1.4848-0.4992-3.4816-0.4992-4.992-0.4992-2.9824 0-5.4784 0.4992-8.4608 1.4976-2.9952 0.9984-4.992 2.496-7.488 4.992-2.496 2.4832-3.9936 4.9792-4.992 8.4736-1.4848 3.4816-1.984 7.4752-1.984 12.4672 0 3.968 0.4992 7.4752 1.4976 10.9568 0.9856 3.4944 2.4832 6.4896 4.48 8.9856 1.9968 2.4832 4.48 4.48 7.9744 5.9776 2.9952 1.4976 6.9888 1.9968 10.9696 1.9968 3.4944 0 6.4896-0.4992 9.472-1.9968 2.9952-1.4976 5.504-3.4944 6.9888-6.4768v6.976h10.9696v-73.2928h-11.4688v0.9984z m-0.512 53.8496c-0.4992 1.9968-1.4976 3.9808-2.496 5.9776-0.9856 1.9968-2.4832 2.9952-4.48 4.48a13.7856 13.7856 0 0 1-6.4896 1.5104c-2.4832 0-4.48-0.512-6.4768-1.4976a11.6992 11.6992 0 0 1-4.48-3.9936 16.6016 16.6016 0 0 1-2.496-5.9776 29.1456 29.1456 0 0 1-0.9984-6.4896c0-2.4832 0.4992-4.48 0.9984-6.976 0.4224-2.1376 1.28-4.1728 2.496-5.9776a9.7664 9.7664 0 0 1 4.48-4.4928c1.9968-0.9984 3.9936-1.4976 6.976-1.4976 4.4928 0 7.9872 1.4976 10.4704 4.992 2.496 3.4816 3.9936 7.9744 3.9936 13.952a51.7632 51.7632 0 0 0-1.4976 5.9904z m-85.248-17.9584a26.0992 26.0992 0 0 0-4.992-8.96 26.0096 26.0096 0 0 0-8.4864-5.9904c-3.4816-1.4976-6.976-1.9968-11.4688-1.9968-4.48 0-7.9744 0.4992-11.4688 1.9968a26.0096 26.0096 0 0 0-8.4736 5.9776 19.968 19.968 0 0 0-4.992 8.9728c-0.9856 3.4944-1.984 6.976-1.984 10.9696 0 3.9936 0.4992 7.9872 1.9968 11.4688 0.9984 3.4944 2.9824 6.4896 4.992 8.9856 2.4832 2.4832 4.9792 4.48 8.4608 5.9776 3.4944 1.4976 6.9888 1.9968 11.4688 1.9968 4.4928 0 7.9872-0.512 11.4688-1.9968 3.4944-1.4976 5.9904-3.4944 8.4736-5.9776 2.496-2.496 3.9936-5.4912 4.992-8.9856 0.9984-3.4816 1.9968-6.976 1.9968-11.4688-0.4992-3.9936-0.9984-7.9744-1.9968-10.9696z m-10.9824 17.9584a30.5536 30.5536 0 0 1-2.496 5.9776c-0.9984 1.9968-2.9824 2.9952-4.48 4.48a14.4512 14.4512 0 0 1-6.9888 1.5104 14.464 14.464 0 0 1-6.976-1.4976 9.792 9.792 0 0 1-4.48-4.48c-0.9984-2.0096-1.9968-3.9936-2.496-5.9904a29.3888 29.3888 0 0 1-0.9984-6.9888c0-2.4832 0.4992-4.48 0.9984-6.976 0.4224-2.1376 1.28-4.1728 2.4832-5.9776 0.9984-1.4976 2.9952-2.9952 4.4928-4.4928 1.9968-0.9984 3.9936-1.4976 6.976-1.4976 2.9952 0 4.992 0.512 6.9888 1.4976a9.792 9.792 0 0 1 4.48 4.48c0.9984 1.9968 1.9968 3.9936 2.496 5.9904a29.44 29.44 0 0 1 0.9984 6.976c0 2.496-0.4992 4.48-0.9984 6.9888z" fill="#2c2c2c" p-id="7294"></path><path d="M430.976 760.4096h16.448l13.9648 52.864h0.4992l13.4656-52.864h15.9488l12.4672 52.864h0.512l14.4512-52.864h15.9488l-21.9392 70.8096h-15.9488l-12.9664-52.352h-0.4992l-12.9664 52.352h-16.448l-22.9376-70.8096z m145.1008 72.8064c-5.504 0-10.4832-0.9984-14.976-2.9952a35.5328 35.5328 0 0 1-10.9568-7.4752c-2.9952-3.4944-5.4912-6.9888-6.9888-11.968a47.04 47.04 0 0 1-2.4832-14.9632c0-5.4912 0.9984-10.4704 2.4832-14.9632 1.4976-4.48 3.9936-8.4736 6.9888-11.968 2.9824-3.4816 6.976-5.9776 10.9696-7.4752 4.48-1.9968 9.472-2.9952 14.9632-2.9952 5.4784 0 10.4704 0.9984 14.9504 2.9952 4.48 1.9968 7.9744 4.48 10.9696 7.4752a28.16 28.16 0 0 1 6.976 11.968c1.4976 4.4928 2.496 9.472 2.496 14.976 0 5.4784-0.9984 10.4576-2.496 14.9504a35.968 35.968 0 0 1-6.976 11.968 27.0208 27.0208 0 0 1-10.9696 7.4752c-3.9808 1.984-8.9728 2.9952-14.9504 2.9952z m0-12.48c3.4816 0 6.4768-0.4864 8.96-1.984a24.448 24.448 0 0 0 6.4896-5.9776c1.4976-2.496 2.9952-4.992 3.4944-7.9872 0.9984-2.9824 0.9984-5.9776 0.9984-8.96 0-3.008-0.512-6.0032-0.9984-8.9856a38.464 38.464 0 0 0-3.4944-7.9872c-1.4976-2.4832-3.4944-3.968-6.4768-5.4784-2.496-1.4976-5.4912-1.9968-8.9728-1.9968-3.4944 0-6.4896 0.4992-8.9856 1.9968-2.496 1.4976-4.48 3.4944-6.4768 5.4784-1.9968 1.9968-2.9952 4.992-3.4944 7.9872-0.9984 2.9824-0.9984 5.9776-0.9984 8.9728 0 2.9952 0.512 5.9904 0.9984 8.9728 0.9984 2.9952 1.9968 5.4912 3.4944 7.9872 1.4976 2.4832 3.4944 4.48 6.4768 5.9776 2.496 1.4976 5.4912 1.984 8.9856 1.984z m48.8576-60.3264h14.464v13.4656h0.4992c0.4864-1.9968 1.4848-3.9808 2.4832-5.4912 1.408-1.8944 3.0848-3.584 4.992-4.9792 1.9968-1.4976 3.9808-2.496 5.9776-3.4944a17.536 17.536 0 0 1 6.9888-1.4976h3.9808c0.4992 0 1.4976 0 1.9968 0.512v14.9504c-0.9984 0-1.9968-0.4992-3.4944-0.4992h-3.4816c-2.496 0-4.992 0.512-7.488 1.4976a13.568 13.568 0 0 0-5.9776 4.48c-1.4976 2.0096-2.9952 4.4928-3.9936 7.488a33.1136 33.1136 0 0 0-1.4976 10.4704v33.408h-15.4496v-70.3104z m114.688 70.8096h-14.976v-9.472h-0.4864a19.584 19.584 0 0 1-8.9728 8.96c-3.9936 2.0096-8.4864 2.5088-12.4672 2.5088-5.4912 0-10.4704-0.9984-14.464-2.9952a32.5504 32.5504 0 0 1-10.4704-7.9744c-2.496-3.4944-4.992-7.488-5.9904-11.968-1.4848-4.48-1.984-9.472-1.984-14.9632 0-6.4768 0.9984-11.968 2.4832-16.4608 1.4976-4.48 3.9936-8.4736 6.9888-11.456 2.9824-2.9952 5.9776-4.992 9.9712-6.4896 3.4816-1.4976 7.4752-1.9968 11.4688-1.9968 1.9968 0 4.48 0 6.4768 0.512 2.496 0.4864 4.48 0.9856 6.4768 1.984 1.9968 0.9984 3.9936 1.9968 5.9904 3.4944 1.9968 1.4976 3.4944 2.9952 4.48 4.992h0.512v-36.4032h15.4496v97.728h-0.4992z m-54.3616-34.4064c0 2.9824 0.512 5.9776 0.9984 8.9728 0.9984 2.9952 1.9968 5.4784 3.4944 7.9744 1.4976 2.496 3.4816 3.9936 5.9776 5.4912 2.496 1.4848 5.4912 1.984 8.9728 1.984 3.4944 0 6.4896-0.4992 8.9728-1.984 2.4704-1.472 4.5312-3.52 5.9904-5.9776 1.4976-2.496 2.9952-4.992 3.4944-7.9872 0.9856-2.9824 0.9856-5.9776 0.9856-8.9728 0-7.9744-1.984-13.9648-5.4784-18.4448-3.4944-4.48-8.4736-6.4896-14.464-6.4896-3.4816 0-6.4768 0.9984-9.472 2.496a17.152 17.152 0 0 0-5.9776 5.9776c-1.4976 2.496-2.496 4.992-3.4944 7.9872v8.96z" fill="#2c2c2c" p-id="7295"></path><path d="M243.9936 728.4992h-19.9424l-12.4672-47.36h-0.4992l-11.968 47.36h-19.9424l-22.4256-70.7968h20.4416l12.9536 47.872h0.512l11.9552-47.872h18.944l11.968 47.872h0.512l12.9536-47.872h19.9424l-22.9376 70.7968z m47.872-34.9056c0 2.9952 0.4992 5.4912 0.9984 8.4864 0.4992 2.496 1.4976 4.992 2.9952 7.4752 1.4848 1.9968 2.9824 3.9936 5.4784 4.992 1.9968 1.4848 4.992 1.984 7.9744 1.984 3.4944 0 5.9904-0.4992 8.4864-1.984 1.984-1.4976 3.9808-2.9952 5.4784-4.992 1.4976-1.9968 2.496-4.48 2.9952-7.4752 0.4992-2.496 0.9984-5.4912 0.9984-8.4864 0-2.9824-0.512-5.4784-0.9984-8.4736a23.488 23.488 0 0 0-2.9952-7.4752c-1.4976-2.496-2.9952-3.9936-5.4784-4.992-1.9968-1.4976-4.992-1.9968-8.4864-1.9968-3.4816 0-5.9776 0.512-7.9744 1.9968-1.9968 1.4976-3.9936 2.9952-5.4784 4.992-1.4976 1.9968-2.496 4.48-2.9952 7.4752-0.9984 2.496-0.9984 5.4912-0.9984 8.4736z m-19.456 0c0-5.4784 0.9984-10.9696 2.5088-15.4496 1.4848-4.48 3.9808-8.4736 7.4752-11.968 2.9952-2.9952 6.976-5.9776 11.4688-7.4752 4.48-1.9968 9.472-2.496 14.9504-2.496 5.4912 0 10.4704 0.9984 14.9632 2.496 4.48 1.984 8.4736 4.48 11.4688 7.4752 2.9952 2.9952 5.4784 6.976 7.4752 11.968 1.9968 4.992 2.496 9.9712 2.496 15.4496 0 5.4912-0.9984 10.9824-2.496 15.4624s-3.9808 8.4736-7.4752 11.4688a45.6448 45.6448 0 0 1-11.4688 7.4752 47.104 47.104 0 0 1-14.9632 2.496c-5.4784 0-10.4704-0.9984-14.9504-2.496a25.6 25.6 0 0 1-11.4688-7.4752 37.888 37.888 0 0 1-7.4752-11.4688 52.6592 52.6592 0 0 1-2.5088-15.4624z m85.76-35.392h18.4576v12.9536h0.4992c0.9984-1.984 1.9968-3.9808 3.4944-5.9776 1.4848-1.9968 3.4816-3.4944 5.4784-4.992 1.9968-1.4848 3.9936-2.4832 6.4768-2.9824 2.496-0.512 4.4928-0.9984 6.9888-0.9984 1.4976 0 2.4832 0 3.9936 0.4992v17.9456c-1.0112 0-1.9968-0.4992-3.4944-0.4992h-3.4944c-3.4944 0-6.4768 0.512-8.96 1.9968-2.5088 0.9984-4.5056 2.9952-6.0032 4.992-1.4848 1.9968-2.4832 4.48-2.9824 6.976a44.7488 44.7488 0 0 0-0.9984 8.9728v31.9104h-19.456v-70.7968z m103.2192 34.9056c0-2.9952-0.4992-5.504-0.9984-8.4864a17.536 17.536 0 0 0-2.9824-6.976 23.5904 23.5904 0 0 0-4.992-4.992c-1.9968-1.4976-4.992-1.9968-7.9744-1.9968-2.9952 0-5.9904 0.512-7.9744 2.0096-1.9968 1.4848-3.9936 2.9824-5.504 4.9792a17.536 17.536 0 0 0-2.9824 6.976 43.9552 43.9552 0 0 0-0.9984 8.4864c0 2.4832 0.512 5.4784 0.9984 7.9744 0.512 2.496 1.4976 4.992 2.9952 7.4752 1.4976 1.9968 2.9952 3.9936 5.4912 4.992 1.984 1.4976 4.48 1.984 7.4752 1.984 2.9952 0 5.9776-0.4864 7.9744-1.984 1.9968-1.4976 3.9936-2.9952 4.992-4.992 1.4848-1.9968 1.984-4.48 2.4832-7.4752 1.4976-1.9968 1.9968-4.992 1.9968-7.9744z m0.4992 26.4192a22.1824 22.1824 0 0 1-9.472 8.4736 32.7296 32.7296 0 0 1-12.4672 2.496c-5.4784 0-9.984-0.9984-13.952-2.9952a27.5072 27.5072 0 0 1-9.984-8.4736 44.8768 44.8768 0 0 1-5.9776-11.968c-1.4976-4.48-1.9968-9.472-1.9968-14.464 0-4.992 0.512-9.472 1.9968-13.952 1.4976-4.48 3.4816-8.4864 5.9776-11.4688 2.496-3.4944 5.9904-5.9904 9.984-7.9744a29.6448 29.6448 0 0 1 13.4528-2.9952c3.9936 0 7.9744 0.9984 11.968 2.496 3.9936 1.984 6.976 4.48 8.9728 7.9744h0.512v-35.4048h19.4304v97.2288h-18.4448v-8.9728z m119.168-36.3904c-1.4976-7.9872-5.9776-11.9808-14.464-11.9808-2.9824 0-5.4784 0.512-7.9744 2.0096-1.9968 1.4848-3.9808 2.9824-4.992 5.4784-1.4848 1.9968-2.4832 4.48-2.9824 7.4752a43.5712 43.5712 0 0 0-0.9984 7.9872c0 2.4832 0.4992 4.992 0.9984 7.9744 0.4992 2.496 1.4976 4.992 2.4832 6.976 0.9984 1.9968 2.9952 3.9936 4.992 5.4912 1.9968 1.4848 4.48 1.984 7.488 1.984 4.48 0 7.9744-1.4848 10.9696-3.9808 2.4832-2.496 3.968-5.9904 4.48-10.4704h18.944c-1.4976 9.472-4.992 16.448-10.9696 21.44-5.9776 4.992-13.952 7.4752-22.9376 7.4752-5.4784 0-9.9712-0.9984-14.464-2.4832a45.6064 45.6064 0 0 1-11.456-7.488 38.1056 38.1056 0 0 1-7.488-11.4688 46.3872 46.3872 0 0 1-2.4832-14.464c0-5.4784 0.9984-10.4704 2.4832-15.4496 1.4976-4.48 3.9936-8.9728 6.9888-11.968 2.9824-3.4944 6.976-5.9776 11.4688-7.9744 4.48-1.9968 9.472-2.9952 15.4496-2.9952 3.9936 0 7.9744 0.4992 11.968 1.4976 3.9936 0.9984 7.4752 2.9824 10.4704 4.992 2.9952 1.984 5.4784 4.9792 7.4752 8.4736 1.9968 3.4816 2.9952 7.4752 3.4944 11.968h-18.944v-0.512z m30.4128-51.8656h19.456v97.2288h-19.456v-97.2288z m52.352 62.336c0 2.9824 0.512 5.4784 0.9984 8.4736 0.4992 2.496 1.4976 4.992 2.9952 7.4752 1.4976 1.9968 2.9952 3.9936 5.4784 4.992 1.9968 1.4848 4.992 1.984 7.9872 1.984 3.4816 0 5.9776-0.4992 8.4736-1.984 1.9968-1.4976 3.9808-2.9952 5.4912-4.992a16.896 16.896 0 0 0 2.9824-7.4752c0.512-2.9952 0.9984-5.4912 0.9984-8.4864 0-2.9824-0.4992-5.4784-0.9984-8.4736a19.7376 19.7376 0 0 0-2.9824-7.4752c-1.4976-1.9968-2.9952-3.9936-5.504-4.992-2.4832-0.9984-4.9792-1.9968-8.4608-1.9968-3.4944 0-5.9904 0.512-7.9872 1.9968-1.984 1.4976-3.9808 2.9952-5.4784 4.992a16.896 16.896 0 0 0-2.9952 7.4752c-0.9984 2.496-0.9984 5.4912-0.9984 8.4736z m-19.4432 0c0-5.504 0.9984-10.9824 2.496-15.4624s3.9808-8.4736 7.4752-11.968c2.9952-2.9952 6.976-5.9776 11.4688-7.4752 4.48-1.9968 9.472-2.496 14.9632-2.496 5.4784 0 10.4704 0.9984 14.9632 2.496 4.48 1.984 8.4736 4.48 11.456 7.4752 2.9952 2.9952 5.4912 6.976 7.488 11.968 1.9968 4.992 2.4832 9.9712 2.4832 15.4496 0 5.4912-0.9856 10.9824-2.4832 15.4624s-3.9936 8.4736-7.488 11.4688a38.1824 38.1824 0 0 1-11.456 7.4752c-4.4928 1.4976-9.472 2.496-14.976 2.496a47.104 47.104 0 0 1-14.9504-2.496 25.6128 25.6128 0 0 1-11.4688-7.4752 38.0032 38.0032 0 0 1-7.4752-11.4688c-1.9968-4.992-2.496-9.984-2.496-15.4624z m152.0768 34.8928h-18.4448v-9.9712h-0.512c-2.4832 3.9936-5.4784 6.9888-9.472 8.9728-3.968 1.9968-7.9744 2.496-11.9552 2.496-4.992 0-9.472-0.512-12.9664-1.9968a19.8912 19.8912 0 0 1-7.9744-5.9776 18.5088 18.5088 0 0 1-3.9936-8.9728 83.4304 83.4304 0 0 1-0.9984-11.968v-43.392h19.456V697.6c0 5.9904 0.9856 9.984 2.4832 12.9664 1.9968 2.9952 4.992 4.48 9.472 4.48 5.4912 0 8.9728-1.4848 11.4816-4.48 2.4832-2.9952 3.4816-8.4736 3.4816-15.4624v-36.8896h19.456v70.2976h0.4864z m64.8192-35.392c0-2.9952-0.512-5.504-0.9984-8.4864a17.4592 17.4592 0 0 0-2.9952-6.976 23.552 23.552 0 0 0-4.992-4.992c-1.984-1.4976-4.9792-1.9968-7.9744-1.9968-2.9824 0-5.9776 0.512-7.9744 2.0096-1.9968 1.4848-3.9808 2.9824-5.4784 4.9792-1.4976 1.9968-2.496 4.48-2.9952 6.976a43.9552 43.9552 0 0 0-0.9984 8.4864c0 2.4832 0.512 5.4784 0.9984 7.9744 0.512 2.496 1.4976 4.992 2.9952 7.4752 1.4976 1.9968 2.9824 3.9936 5.4784 4.992 1.9968 1.4976 4.48 1.984 7.4752 1.984 2.9952 0 5.9904-0.4864 7.9872-1.984 1.9968-1.4976 3.9936-2.9952 4.992-4.992 1.4848-1.9968 1.984-4.48 2.4832-7.4752 1.4976-1.9968 1.9968-4.992 1.9968-7.9744z m0 26.4192a22.1824 22.1824 0 0 1-9.472 8.4736c-3.9936 1.9968-7.9872 2.496-12.4672 2.496-5.4784 0-9.984-0.9984-13.952-2.9952a27.4944 27.4944 0 0 1-9.984-8.4736 44.8768 44.8768 0 0 1-5.9776-11.968c-1.4976-4.48-1.9968-9.472-1.9968-14.464 0-4.992 0.512-9.472 1.9968-13.952 1.4976-4.48 3.4816-8.4864 5.9776-11.4688 2.496-3.4944 5.9904-5.9904 9.984-7.9744a29.6448 29.6448 0 0 1 13.4528-2.9952c3.9936 0 7.9744 0.9984 11.968 2.496 3.9936 1.984 6.976 4.48 8.9728 7.9744h0.512v-35.4048h19.4304v97.2288h-18.4448v-8.9728z" fill="#2c2c2c" p-id="7296"></path></svg>